<?xml version="1.0" encoding="UTF-8" standalone="no"?><!DOCTYPE svg PUBLIC "-//W3C//DTD SVG 1.1//EN" "http://www.w3.org/Graphics/SVG/1.1/DTD/svg11.dtd"><svg width="100%" height="100%" viewBox="0 0 1746 688" version="1.1" xmlns="http://www.w3.org/2000/svg" xmlns:xlink="http://www.w3.org/1999/xlink" xml:space="preserve" xmlns:serif="http://www.serif.com/" style="fill-rule:evenodd;clip-rule:evenodd;stroke-linejoin:round;stroke-miterlimit:1.41421;"><rect id="Artboard1" x="0" y="0" width="1745.88" height="687.018" style="fill:none;"/><g id="Layer-1" serif:id="Layer 1"><path d="M800.939,142.389l-57.345,0l0,-49.935l-32.773,0l0,169.312l32.381,0l0,51.884l-145.124,0l0,-51.884l31.989,0l0,-169.312l-33.551,0l0,49.935l-57.345,0l0,-101.431l261.768,0l0,101.431Z" style="fill:#2ab5c2;fill-rule:nonzero;"/><path d="M816.55,313.651l0,-51.105l16.384,0l0,-190.768l-16.384,0l0,-50.714l94.408,0l0,121.715c4.289,-7.02 32.773,-31.208 61.249,-31.208c60.467,0 68.27,44.863 68.27,85.824l0,65.151l18.335,0l0,51.105l-100.259,0l0,-106.11c0,-13.265 0,-36.285 -23.018,-36.285c-19.896,0 -24.577,19.507 -24.577,36.285l0,55.005l28.09,0l0,51.105l-122.498,0Z" style="fill:#2ab5c2;fill-rule:nonzero;"/><path d="M1194.85,187.289c-4.994,-13.961 -13.448,-28.434 -37.168,-20.644c-22.606,7.424 -21.098,29.511 -18.794,39.024l55.962,-18.38Zm92.117,64.188c-19.636,32.728 -46.489,50.992 -85.036,63.652c-45.962,15.093 -107.469,2.854 -130.836,-68.308c-19.961,-60.786 11.966,-111.104 67.934,-129.481c44.106,-14.484 85.261,-2.954 106.232,24.65c8.711,11.51 22.156,38.71 21.316,62.395l-116.757,38.345c5.51,9.274 17.029,28.078 48.162,17.852c12.598,-4.138 31.507,-11.581 46.04,-34.834l42.945,25.729Z" style="fill:#2ab5c2;fill-rule:nonzero;"/><path d="M927.648,419.935c-3.826,21.512 -10.518,53.063 -13.864,64.054l-50.19,185.95l-99.908,0l-53.536,-190.728c-2.392,-8.127 -8.605,-35.373 -10.04,-59.276l-1.913,0l0,188.339l27.246,0l0,61.665l-129.541,0l0,-61.665l25.814,0l0,-210.805l-25.335,0l0,-61.663l181.169,0l48.277,178.778l45.891,-178.778l182.128,0l0,61.663l-26.293,0l0,210.329l26.293,0l0,62.141l-151.058,0l0,-62.141l26.771,0l0,-159.658l0,-28.205l-1.911,0Z" style="fill:#2ab5c2;fill-rule:nonzero;"/><path d="M1278.04,517.453l-31.551,-103.253l-31.069,103.253l62.62,0Zm-17.688,152.486l0,-62.62l45.412,0l-10.039,-32.505l-97.995,0l-10.037,32.505l37.284,0l0,62.62l-152.009,0l0,-62.62l32.507,0l64.533,-209.85l-19.601,0l0,-61.663l183.561,0l84.609,271.513l33.46,0l0,62.62l-191.685,0Z" style="fill:#2ab5c2;fill-rule:nonzero;"/><path d="M1732.77,460.09l-70.27,0l0,-61.187l-40.153,0l0,207.459l39.675,0l0,63.576l-177.821,0l0,-63.576l39.197,0l0,-207.459l-41.11,0l0,61.187l-70.27,0l0,-124.285l320.752,0l0,124.285Z" style="fill:#2ab5c2;fill-rule:nonzero;"/><path d="M397.373,102.31c-11.048,0 -20.004,-8.956 -20.004,-20.003c0,-11.052 8.956,-20.008 20.004,-20.008c11.051,0 20.007,8.956 20.007,20.008c0,11.047 -8.956,20.003 -20.007,20.003m-62.242,0c-11.049,0 -20.008,-8.956 -20.008,-20.003c0,-11.052 8.959,-20.008 20.008,-20.008c11.045,0 20.006,8.956 20.006,20.008c0,11.047 -8.961,20.003 -20.006,20.003m107.425,-60.96l-388.673,0c-18.579,0 -33.637,11.481 -33.637,25.643l0,82.227c0,-14.162 15.058,-25.641 33.637,-25.641l388.673,0c18.575,0 33.637,11.479 33.637,25.641l0,-82.227c0,-14.162 -15.062,-25.643 -33.637,-25.643" style="fill:#2ab5c2;fill-rule:nonzero;"/><path d="M248.22,577.727c-90.166,0 -163.263,-73.088 -163.263,-163.256c0,-90.173 73.097,-163.264 163.263,-163.264c90.164,0 163.261,73.091 163.261,163.264c0,90.168 -73.097,163.256 -163.261,163.256m194.334,-418.728l-388.67,0c-18.58,0 -33.638,15.058 -33.638,33.635l0,443.671c0,18.575 15.058,33.633 33.638,33.633l388.67,0c18.577,0 33.638,-15.058 33.638,-33.633l0,-443.671c0,-18.577 -15.061,-33.635 -33.638,-33.635" style="fill:#2ab5c2;fill-rule:nonzero;"/><path d="M395.993,393.588c-0.178,-0.517 -0.383,-1.026 -0.581,-1.531c-4.613,-11.864 -14.506,-20.886 -25.351,-29.117c-12.055,-8.153 -25.12,-15.454 -52.117,-13.668c4.178,9.672 -3.283,25.66 -13.663,44.155c-15.768,-11.859 -40.875,-15.32 -75.562,-12.666c10.878,10.887 -5.108,35.633 -21.761,60.931c-11.21,-6.067 -20.408,-15.345 -41.611,-12.525c-8.994,28.646 -15.992,32.397 -32.071,49.535c-3.542,3.699 -7.094,7.31 -10.729,10.847c4.295,6.291 9.056,12.231 14.237,17.779c27.333,29.286 66.263,47.601 109.478,47.601c82.694,0 149.731,-67.033 149.731,-149.729c0,-3.811 -0.145,-7.59 -0.425,-11.33c0.143,-0.093 0.283,-0.185 0.425,-0.282" style="fill:#2ab5c2;fill-rule:nonzero;"/><path d="M367.391,351.438c-8.587,-15.672 -34.445,-32.381 -52.129,-30.781c-11.732,1.065 -16.668,8.862 -13.483,13.578c3.824,5.642 12.491,7.637 18.903,4.908c7.318,-3.112 32.923,-1.026 46.709,12.295" style="fill:#2ab5c2;fill-rule:nonzero;"/><path d="M202.01,426.839c-10.204,-14.667 -37.691,-28.537 -55.103,-25.067c-11.554,2.307 -15.634,10.585 -11.966,14.934c4.403,5.201 13.232,6.264 19.321,2.867c6.945,-3.868 32.625,-4.513 47.748,7.266" style="fill:#2ab5c2;fill-rule:nonzero;"/><path d="M296.526,378.211c-14.655,-13.772 -57.659,-32.723 -89.152,-23.031c-13.792,4.247 -18.021,11.862 -12.876,15.89c6.174,4.823 16.751,3.922 24.408,1.255c19.961,-6.956 57.234,-4.598 77.62,5.886" style="fill:#2ab5c2;fill-rule:nonzero;"/></g></svg>